<svg width="50" height="50" viewBox="0 0 50 50" fill="none" xmlns="http://www.w3.org/2000/svg">
  <defs>
    <linearGradient id="asteroidGrad" x1="0%" y1="0%" x2="100%" y2="100%">
      <stop offset="0%" style="stop-color:#FF5555;stop-opacity:1" />
      <stop offset="100%" style="stop-color:#CC0000;stop-opacity:1" />
    </linearGradient>
  </defs>
  <path d="M25 2 L32 8 L40 5 L45 12 L48 22 L45 32 L40 42 L30 48 L20 48 L10 42 L5 32 L2 22 L5 12 L10 5 L18 8 Z" 
        fill="url(#asteroidGrad)" 
        stroke="#990000" 
        stroke-width="2"/>
  <ellipse cx="18" cy="15" rx="4" ry="3" fill="#AA0000" opacity="0.6"/>
  <ellipse cx="32" cy="25" rx="5" ry="4" fill="#AA0000" opacity="0.6"/>
  <ellipse cx="22" cy="35" rx="3" ry="3" fill="#AA0000" opacity="0.6"/>
  <path d="M15 22 L12 28 L18 26 Z" fill="#770000" opacity="0.5"/>
  <path d="M35 15 L38 20 L33 19 Z" fill="#770000" opacity="0.5"/>
</svg>

