<svg width="40" height="40" viewBox="0 0 40 40" fill="none" xmlns="http://www.w3.org/2000/svg">
  <defs>
    <linearGradient id="bookGrad" x1="0%" y1="0%" x2="100%" y2="0%">
      <stop offset="0%" style="stop-color:#5B8DEE;stop-opacity:1" />
      <stop offset="100%" style="stop-color:#4169E1;stop-opacity:1" />
    </linearGradient>
    <linearGradient id="capGrad" x1="0%" y1="0%" x2="0%" y2="100%">
      <stop offset="0%" style="stop-color:#6495ED;stop-opacity:1" />
      <stop offset="100%" style="stop-color:#4169E1;stop-opacity:1" />
    </linearGradient>
  </defs>
  <path d="M20 8 L35 12 L35 24 L20 28 L5 24 L5 12 Z" 
        fill="url(#capGrad)" 
        stroke="#2C4A9E" 
        stroke-width="1.5"/>
  <polygon points="5,12 20,8 35,12 20,16" fill="#4169E1" opacity="0.8"/>
  <rect x="19" y="16" width="2" height="8" fill="#2C4A9E"/>
  <polygon points="15,24 20,26 25,24 25,22 20,24 15,22" fill="#FFD700"/>
  <circle cx="20" cy="26" r="1.5" fill="#FFD700"/>
  <path d="M8 14 L8 22 M12 15 L12 23 M16 16 L16 24" stroke="#5B8DEE" stroke-width="0.8" opacity="0.5"/>
  <path d="M24 16 L24 24 M28 15 L28 23 M32 14 L32 22" stroke="#5B8DEE" stroke-width="0.8" opacity="0.5"/>
</svg>

